<svg xmlns="http://www.w3.org/2000/svg" xml:space="preserve" width="800" height="800" viewBox="0 0 468.562 468.562"><path d="m407.632 88.797.162-.545c45.192-18.246 62.615-59.029 42.706-77.275-19.909-18.245-42.706 8.147-42.706 8.147h-.162s-22.807-26.383-42.706-8.147c-19.909 18.246-2.487 59.585 42.706 77.82zM233.824 468.562h205.393s-23.304-77.619-107.588-89.802-66.632-68.477-66.632-68.477c6.771-6.771 61.697-24.557 63.046-150.466C328.043 1.415 225.332 0 225.332 0h-1.243S121.225 1.415 121.225 159.818c1.358 125.91 56.199 142.185 62.969 148.956 0 0 17.604 57.05-66.67 69.232C33.25 390.188 9.908 468.562 9.908 468.562h223.916z"/></svg>