<svg xmlns="http://www.w3.org/2000/svg" xml:space="preserve" width="800" height="800" viewBox="0 0 554.625 554.625"><path d="M525.938 114.75H28.688C12.842 114.75 0 127.592 0 143.438v267.75c0 15.845 12.842 28.688 28.688 28.688h497.25c15.845 0 28.688-12.843 28.688-28.688v-267.75c-.001-15.846-12.844-28.688-28.688-28.688zm-97.672 48.893c19.288-17.681 41.387 8.482 41.387 8.482h.163s22.099-26.163 41.396-8.482 3.271 55.94-40.535 73.622l-1.568.019c-43.797-17.681-60.14-55.96-40.843-73.641zM47.812 191.25h124.312c5.288 0 9.562 4.274 9.562 9.562s-4.274 9.562-9.562 9.562H47.812c-5.288 0-9.562-4.274-9.562-9.562s4.274-9.562 9.562-9.562zm0 38.25h363.375c5.288 0 9.562 4.274 9.562 9.562s-4.274 9.562-9.562 9.562H47.812c-5.288 0-9.562-4.274-9.562-9.562s4.274-9.562 9.562-9.562zm468.563 172.125H420.75c-5.288 0-9.562-4.274-9.562-9.562s4.274-9.562 9.562-9.562h95.625c5.288 0 9.562 4.274 9.562 9.562s-4.274 9.562-9.562 9.562zm0-38.25H47.812c-5.288 0-9.562-4.274-9.562-9.562s4.274-9.562 9.562-9.562h468.562c5.288 0 9.562 4.274 9.562 9.562s-4.273 9.562-9.561 9.562zm0-38.25H47.812c-5.288 0-9.562-4.274-9.562-9.562S42.524 306 47.812 306h468.562c5.288 0 9.562 4.274 9.562 9.562s-4.273 9.563-9.561 9.563zm0-38.25H47.812c-5.288 0-9.562-4.274-9.562-9.562s4.274-9.562 9.562-9.562h468.562c5.288 0 9.562 4.274 9.562 9.562s-4.273 9.562-9.561 9.562z"/></svg>